<svg width="1870" height="608" viewBox="0 0 1870 608" fill="none" xmlns="http://www.w3.org/2000/svg">
<g clip-path="url(#clip0_8893_1322)">
<path fill-rule="evenodd" clip-rule="evenodd" d="M858.538 41.2978C885.742 59.2352 906.97 84.7792 919.536 114.696C932.102 144.612 935.439 177.556 929.126 209.356C922.813 241.156 907.132 270.382 884.071 293.333C861.009 316.285 831.603 331.93 799.575 338.288C767.548 344.647 734.339 341.432 704.154 329.05C673.969 316.669 648.165 295.679 630.008 268.737C611.852 241.795 602.16 210.112 602.16 177.701C602.097 134.331 619.399 92.7118 650.258 61.9993C681.118 31.2867 723.009 13.9963 766.715 13.9314C799.377 13.8363 831.333 23.3604 858.538 41.2978ZM711.634 95.8803C695.317 106.648 682.587 121.977 675.054 139.928C667.521 157.879 665.525 177.644 669.318 196.721C673.111 215.798 682.522 233.329 696.361 247.096C710.2 260.863 727.844 270.246 747.059 274.057C766.274 277.868 786.197 275.937 804.306 268.507C822.414 261.077 837.894 248.482 848.786 232.318C859.678 216.154 865.492 197.146 865.492 177.701C865.511 164.813 862.97 152.047 858.016 140.133C853.062 128.219 845.79 117.39 836.618 108.265C827.445 99.1398 816.55 91.8975 804.556 86.9516C792.562 82.0056 779.704 79.4529 766.715 79.4393C747.12 79.3909 727.95 85.1126 711.634 95.8803Z" fill="black"/>
<path fill-rule="evenodd" clip-rule="evenodd" d="M32.6908 6.96582C38.0562 7.01159 43.3219 8.40974 47.9933 11.029C52.6648 13.6482 56.5888 17.4026 59.3969 21.9396C61.6497 25.9079 62.888 30.3637 63.0033 34.9169V320.483C62.9548 326.408 61.0208 332.167 57.4774 336.936C53.9339 341.706 48.9623 345.242 43.2726 347.04C41.2909 347.765 39.2244 348.236 37.1228 348.444H25.8766C18.8891 347.58 12.4211 344.335 7.57904 339.262C2.61204 333.946 -0.106169 326.94 -0.0133225 319.692V35.9246C-0.00766746 29.8041 1.97259 23.8461 5.63746 18.9232C9.30234 14.0002 14.4593 10.371 20.3532 8.56679C23.5946 7.56733 26.9624 7.02833 30.3561 6.96582H32.6908Z" fill="black"/>
<path fill-rule="evenodd" clip-rule="evenodd" d="M485.604 11.0796C490.096 13.7015 493.824 17.4374 496.422 21.9208C499.22 26.4923 500.731 31.7251 500.797 37.0735V319.146C500.705 324.225 499.328 329.2 496.792 333.614C494.257 338.027 490.644 341.737 486.286 344.404C483.036 346.616 479.289 348.003 475.372 348.444H465.236C458.762 347.571 452.793 344.499 448.344 339.751C439.853 330.591 389.895 279.674 298.47 187C268.24 156.274 243.397 131.01 223.942 111.208V177.705C223.825 183.421 222.028 188.979 218.773 193.697C215.517 198.415 210.944 202.087 205.616 204.262C203.821 205.063 201.943 205.67 200.017 206.07C198.615 206.242 197.205 206.343 195.793 206.372C194.528 206.372 192.652 206.271 190.165 206.07C182.954 205.096 176.292 201.711 171.279 196.474C166.902 190.887 164.584 183.98 164.712 176.904V35.9246C164.716 34.0588 164.942 32.2 165.386 30.3871C165.947 28.0351 166.828 25.7698 168.005 23.6536C170.265 19.5285 173.353 15.9068 177.078 13.0118L178.027 12.2208L178.824 11.7499C180.501 10.6142 182.32 9.69938 184.234 9.02825C184.321 9.00671 184.412 9.00671 184.5 9.02825C187.945 7.68922 191.609 6.99012 195.309 6.96582C200.734 7.27335 206.015 8.81941 210.739 11.4836C215.463 14.1477 219.504 17.8581 222.547 22.3257C298.47 99.5114 370.819 172.993 439.593 242.77H439.793V38.2884C439.674 32.1541 441.409 26.1252 444.776 20.9788C448.142 15.8324 452.984 11.8045 458.679 9.41437C462.517 7.81693 466.635 6.98493 470.798 6.96582C476.009 7.04009 481.111 8.45774 485.604 11.0796Z" fill="black"/>
<path d="M192.93 285.715C201.026 285.772 208.784 288.937 214.579 294.547C220.374 300.156 223.754 307.775 224.012 315.804V318.139C223.921 323.181 222.574 328.122 220.09 332.522C217.606 336.921 214.062 340.641 209.776 343.35C204.8 346.657 198.948 348.426 192.959 348.435H192.105C183.855 348.288 175.99 344.951 170.184 339.133C164.378 333.316 161.091 325.479 161.023 317.292V316.868C161.016 310.919 162.713 305.091 165.918 300.063C169.122 295.036 173.702 291.016 179.122 288.474C183.08 286.763 187.333 285.826 191.649 285.715H192.93Z" fill="#7580D2"/>
<path fill-rule="evenodd" clip-rule="evenodd" d="M1016.69 0C1022.25 0.0310811 1027.67 1.6739 1032.3 4.72608C1036.92 7.77826 1040.55 12.1065 1042.72 17.1775C1121.13 177.275 1160.47 257.402 1160.73 257.559C1195.31 187.11 1213.19 150.821 1214.37 148.693C1217.12 144.376 1221 140.878 1225.59 138.568C1230.18 136.258 1235.31 135.223 1240.45 135.571C1245.58 135.919 1250.53 137.639 1254.76 140.547C1258.99 143.455 1262.35 147.444 1264.49 152.092C1266.27 155.639 1267.27 159.52 1267.42 163.478V166.878C1266.24 175.15 1263.23 183.062 1258.61 190.045C1212.52 284.458 1188.9 332.465 1187.75 334.066C1183.79 340.292 1177.76 344.955 1170.71 347.251C1169.04 347.959 1167.25 348.365 1165.43 348.447H1155.44C1148.39 347.403 1141.91 344.024 1137.04 338.86C1130.7 331.385 1125.2 323.255 1120.62 314.61C1120.53 314.522 1081.58 232.904 1003.77 69.7553C993.44 48.9552 988.224 38.0874 988.116 37.152C987.635 34.5252 987.371 31.8637 987.328 29.1942C987.307 23.6587 988.856 18.2291 991.798 13.5261C994.74 8.82302 998.957 5.03642 1003.97 2.59922C1007.54 0.999563 1011.4 0.116277 1015.33 0V0H1016.69Z" fill="black"/>
<path d="M1299.34 9.77571e-05C1307.38 -0.02014 1315.1 3.10258 1320.84 8.69243C1326.77 14.2813 1330.22 21.9777 1330.43 30.0889V32.4245C1330.34 37.4664 1328.99 42.4077 1326.51 46.8069C1324.02 51.2061 1320.48 54.9263 1316.19 57.6351C1311.22 60.942 1305.36 62.7117 1299.37 62.7205H1298.52C1293.52 62.7057 1288.6 61.4818 1284.19 59.1549C1279.77 56.8281 1275.99 53.4683 1273.18 49.3665C1269.45 44.17 1267.44 37.9492 1267.43 31.5675V31.1437C1267.42 25.199 1269.11 19.3735 1272.31 14.3463C1275.51 9.3192 1280.08 5.29749 1285.49 2.75C1289.46 1.03699 1293.73 0.103161 1298.06 9.77571e-05H1299.34Z" fill="#3ADDC8"/>
<path fill-rule="evenodd" clip-rule="evenodd" d="M1492.18 6.96582C1497.44 7.09739 1502.58 8.62409 1507.05 11.3877C1511.52 14.1513 1515.17 18.0513 1517.61 22.6836C1567.7 124.355 1593.07 176.264 1593.72 178.411C1594.98 182.289 1595.9 186.265 1596.49 190.296C1596.55 198.684 1593.27 206.758 1587.36 212.757C1581.45 218.755 1573.39 222.191 1564.94 222.315C1559.77 222.255 1554.71 220.915 1550.19 218.417C1545.68 215.919 1541.87 212.342 1539.11 208.01C1538.32 206.798 1524.32 178.326 1497.11 122.594C1496.35 121.728 1495.41 121.03 1494.36 120.543C1493.3 120.057 1492.16 119.793 1491 119.768C1486.79 119.768 1483.38 123.535 1480.75 131.069L1379.79 335.146C1375.69 341.31 1369.56 345.867 1362.44 348.039C1361.54 348.287 1360.61 348.423 1359.68 348.444H1349.24C1343.01 347.689 1337.24 344.829 1332.89 340.345C1329.86 337.327 1327.46 333.743 1325.83 329.801C1324.2 325.859 1323.38 321.636 1323.4 317.375C1325.61 305.21 1330.16 293.581 1336.81 283.124C1336.81 282.722 1371.64 211.608 1441.31 69.7804C1456.56 38.3511 1464.78 21.7638 1465.98 20.0184C1468.64 16.1399 1472.19 12.9373 1476.33 10.6698C1480.47 8.40224 1485.09 7.13338 1489.81 6.96582V6.96582H1492.18Z" fill="black"/>
<path d="M1628.41 285.715C1636.5 285.772 1644.26 288.937 1650.06 294.546C1655.85 300.156 1659.23 307.775 1659.49 315.804V318.139C1659.4 323.183 1658.05 328.126 1655.57 332.527C1653.08 336.928 1649.54 340.65 1645.25 343.359C1640.28 346.666 1634.42 348.436 1628.44 348.445H1627.58C1619.33 348.298 1611.47 344.96 1605.66 339.143C1599.85 333.325 1596.57 325.488 1596.5 317.301V316.877C1596.49 310.929 1598.19 305.1 1601.39 300.073C1604.6 295.045 1609.18 291.026 1614.6 288.484C1618.56 286.769 1622.81 285.829 1627.13 285.715H1628.41Z" fill="#EF7752"/>
<path fill-rule="evenodd" clip-rule="evenodd" d="M1818.4 6.96582C1830 6.96582 1840.02 14.0886 1848.46 28.3341C1862.35 48.8046 1869.73 72.947 1869.62 97.6279V98.4284C1869.73 128.907 1858.62 158.376 1838.38 181.302C1831.97 188.503 1824.74 194.938 1816.83 200.476C1811.09 204.529 1805 208.071 1798.63 211.061V211.457C1839.13 263.774 1861.21 292.529 1864.88 297.721C1867.53 302.432 1869.02 307.704 1869.22 313.1V316.49C1869.05 322.235 1867.4 327.839 1864.42 332.769C1861.44 337.699 1857.24 341.789 1852.22 344.648C1848.75 346.642 1844.92 347.923 1840.94 348.415H1829.67C1822.5 347.271 1815.9 343.835 1810.88 338.631C1750.89 261.018 1720.3 221.213 1719.12 219.217C1716.81 214.059 1715.6 208.484 1715.56 202.84V200.015C1715.69 193.404 1717.34 186.911 1720.4 181.033C1723.45 175.156 1727.82 170.051 1733.17 166.112C1739.39 161.415 1746.91 158.699 1754.72 158.324C1760.07 157.336 1765.31 155.795 1770.34 153.728C1783.97 147.293 1794.84 136.247 1801 122.575C1804 115.548 1805.68 108.034 1805.94 100.406V99.4078C1805.92 98.9995 1805.99 98.5914 1806.14 98.2118L1805.94 96.818V95.8197C1805.64 83.7405 1801.64 72.0388 1794.47 62.2747C1794.57 62.0171 1794.63 61.7482 1794.67 61.4742C1791.66 58.5763 1789.28 55.0957 1787.68 51.2482C1786.08 47.4007 1785.3 43.2685 1785.37 39.1077V38.5144C1785.32 33.0979 1786.7 27.7621 1789.36 23.0337C1792.02 18.3053 1795.88 14.3479 1800.56 11.5521C1805.05 8.64632 1810.27 7.05661 1815.63 6.96582H1818.4Z" fill="black"/>
<path opacity="0.883" d="M1478.25 478.324V491.749H1440.28V591.018H1424.78V491.749H1386.81V478.324H1478.25ZM1493.75 478.324H1575.91V492.133H1508.63V526.347H1570.85V539.389H1508.63V577.593H1577.06V591.018H1493.75V478.324ZM1644.57 475.256C1658.84 475.256 1669.91 479.015 1677.79 486.533C1685.66 494.051 1690.04 502.591 1690.9 512.155H1676.02C1674.33 504.893 1670.96 499.139 1665.9 494.894C1660.88 490.65 1653.83 488.527 1644.72 488.527C1633.62 488.527 1624.65 492.44 1617.8 500.264C1610.99 508.038 1607.59 519.98 1607.59 536.09C1607.59 549.285 1610.66 559.999 1616.8 568.233C1622.99 576.416 1632.19 580.508 1644.42 580.508C1655.67 580.508 1664.23 576.186 1670.12 567.543C1673.23 562.991 1675.56 557.008 1677.1 549.592H1691.98C1690.65 561.457 1686.25 571.404 1678.78 579.434C1669.83 589.1 1657.76 593.933 1642.57 593.933C1629.48 593.933 1618.49 589.969 1609.59 582.042C1597.88 571.558 1592.02 555.371 1592.02 533.482C1592.02 516.86 1596.42 503.231 1605.21 492.593C1614.73 481.035 1627.85 475.256 1644.57 475.256ZM1711 478.324H1726.42V524.89H1785.03V478.324H1800.45V591.018H1785.03V538.315H1726.42V591.018H1711V478.324Z" fill="black"/>
</g>
<defs>
<clipPath id="clip0_8893_1322">
<rect width="1870" height="608" fill="white"/>
</clipPath>
</defs>
</svg>
